# xmcd CD database file
#
# Track frame offsets:
#        150
#        23058
#        41818
#        60516
#        81451
#        103223
#        121978
#        136468
#        161604
#        184265
#        200548
#
# Disc length: 3038 seconds
#
# Revision: 0
# Processed by: cddbd v1.5.2PL0 Copyright (c) Steve Scherf et al.
# Submitted via: CUERipper 2.1.5
#
DISCID=9c0bdc0b
DTITLE=Various Artist - Blues Revue Blues Music Sampler Mar-Apr 2011
DYEAR=2011
DGENRE=
TTITLE0=trampled under foot - the wrong side of the blues
TTITLE1=north mississippi allstars featuring mavis staples - the meeting
TTITLE2=bob margolin and dave gross - low life blues
TTITLE3=jason king band - mean and nasty
TTITLE4=todd sharpville - lousy husband (but a real good dad)
TTITLE5=gina sicilia - addicted
TTITLE6=dr. wu' and friends featuring buddy whittington - why is it so hard to say goodbye
TTITLE7=fabrizio poggi and chicken mambo featuring the blind boys of alabama and charlie musselwhite - i'm on my way
TTITLE8=pete anderson - still in love
TTITLE9=j.p. soars and the red hots featuring robin rogers - more bees with honey
TTITLE10=todd wolfe - love gone bad
EXTD=
EXTT0=
EXTT1=
EXTT2=
EXTT3=
EXTT4=
EXTT5=
EXTT6=
EXTT7=
EXTT8=
EXTT9=
EXTT10=
PLAYORDER=
